<svg width="148" height="32" viewBox="0 0 148 32" fill="none" xmlns="http://www.w3.org/2000/svg">
<path fill-rule="evenodd" clip-rule="evenodd" d="M0 0H15.87C18.8084 0.127483 21.5867 1.37402 23.6356 3.48412C25.6844 5.59421 26.8486 8.40805 26.8896 11.3489C26.9305 14.2898 25.845 17.1349 23.8557 19.3012C21.8663 21.4675 19.1237 22.7908 16.19 23C16.2007 25.1389 15.3661 27.1954 13.8678 28.7219C12.3694 30.2483 10.3287 31.121 8.19 31.15C-3.04 31.15 -3.29 11.83 14.26 14.49V17.7L21.18 11.58L14.25 4.87V8.16H0V0Z" fill="url(#paint0_linear_407_3059)"/>
<path d="M36 14.41C35.9405 14.4122 35.8812 14.4018 35.826 14.3794C35.7708 14.357 35.7211 14.3231 35.68 14.28C35.6407 14.2407 35.6098 14.1939 35.5892 14.1423C35.5686 14.0907 35.5586 14.0355 35.56 13.98V2.64997C35.5584 2.59292 35.5682 2.53613 35.5888 2.4829C35.6094 2.42968 35.6404 2.38109 35.68 2.33997C35.7667 2.25944 35.8817 2.21633 36 2.21997H40.88C41.7372 2.2027 42.5897 2.35214 43.39 2.65997C44.0467 2.93873 44.6066 3.4048 45 3.99997C45.4219 4.66878 45.6311 5.44981 45.6 6.23997C45.6321 7.02396 45.4227 7.7989 45 8.45997C44.5852 9.0518 43.9988 9.50208 43.32 9.74997C42.517 10.0458 41.6656 10.1882 40.81 10.17H38.77V14C38.7708 14.0578 38.7597 14.1152 38.7373 14.1685C38.715 14.2219 38.6818 14.27 38.64 14.31C38.5982 14.3521 38.5483 14.3853 38.4933 14.4077C38.4383 14.43 38.3793 14.441 38.32 14.44H36V14.41ZM38.75 7.75997H40.75C41.1796 7.78214 41.6027 7.64705 41.94 7.37997C42.0972 7.2306 42.2191 7.04811 42.2969 6.84573C42.3748 6.64335 42.4066 6.42617 42.39 6.20997C42.4005 5.80164 42.2618 5.40347 42 5.08997C41.838 4.927 41.6418 4.80209 41.4256 4.72426C41.2095 4.64643 40.9787 4.61764 40.75 4.63997H38.75V7.75997Z" fill="url(#paint1_linear_407_3059)"/>
<path d="M52.2901 14.59C51.3377 14.6076 50.3917 14.4307 49.5101 14.07C48.7474 13.7432 48.1022 13.1922 47.6601 12.49C47.1878 11.6899 46.936 10.7791 46.9301 9.85003C46.9301 9.35003 46.9301 8.85003 46.9301 8.34003C46.9301 7.83003 46.9301 7.34003 46.9301 6.84003C46.9371 5.90981 47.1926 4.99837 47.6701 4.20003C48.1135 3.48563 48.7616 2.92117 49.5301 2.58003C51.3064 1.85955 53.2937 1.85955 55.0701 2.58003C55.8366 2.92429 56.4838 3.48803 56.9301 4.20003C57.4086 4.9974 57.661 5.91006 57.6601 6.84003C57.6601 7.34003 57.6601 7.84003 57.6601 8.34003C57.6601 8.84003 57.6601 9.34003 57.6601 9.85003C57.662 10.7788 57.4133 11.6909 56.9401 12.49C56.4915 13.1904 55.8437 13.7406 55.0801 14.07C54.1953 14.4321 53.2458 14.609 52.2901 14.59ZM52.2901 12.08C52.5662 12.0906 52.8417 12.0466 53.1009 11.9505C53.36 11.8544 53.5976 11.7081 53.8001 11.52C54.0163 11.2793 54.1824 10.9979 54.2889 10.6923C54.3953 10.3867 54.4399 10.063 54.4201 9.74003C54.4201 9.23336 54.4201 8.75337 54.4201 8.30003C54.4201 7.8467 54.4201 7.3767 54.4201 6.89003C54.4219 6.42538 54.3158 5.96667 54.1101 5.55003C53.9502 5.22715 53.6908 4.96422 53.3701 4.80003C53.0371 4.6263 52.6654 4.54026 52.2901 4.55003C51.9213 4.54234 51.5565 4.62836 51.2301 4.80003C50.9108 4.96953 50.6496 5.23075 50.4801 5.55003C50.2793 5.96841 50.1734 6.42598 50.1701 6.89003C50.1701 7.38003 50.1701 7.89003 50.1701 8.30003C50.1701 8.71003 50.1701 9.23003 50.1701 9.74003C50.1425 10.3924 50.3682 11.0302 50.8001 11.52C51.2034 11.8959 51.739 12.0972 52.2901 12.08Z" fill="url(#paint2_linear_407_3059)"/>
<path d="M64.7 14.5899C63.7442 14.6089 62.7947 14.432 61.91 14.07C61.15 13.7431 60.508 13.1918 60.07 12.4899C59.5942 11.6908 59.3389 10.7799 59.33 9.84995C59.33 9.34995 59.33 8.84995 59.33 8.33995C59.33 7.82995 59.33 7.33995 59.33 6.83995C59.3467 5.91114 59.6015 5.00216 60.07 4.19995C60.5146 3.48279 61.1668 2.9178 61.94 2.57995C63.713 1.86007 65.6969 1.86007 67.47 2.57995C68.2385 2.9211 68.8865 3.48555 69.33 4.19995C69.8116 4.99651 70.0674 5.90911 70.07 6.83995C70.07 7.33995 70.07 7.83995 70.07 8.33995C70.07 8.84995 70.07 9.33995 70.07 9.84995C70.0689 10.7796 69.8167 11.6918 69.34 12.4899C68.8978 13.1921 68.2526 13.7431 67.49 14.07C66.6052 14.432 65.6557 14.6089 64.7 14.5899ZM64.7 12.08C64.9761 12.0906 65.2517 12.0466 65.5108 11.9505C65.7699 11.8544 66.0075 11.7081 66.21 11.5199C66.6428 11.0313 66.8656 10.3918 66.83 9.73995C66.83 9.23328 66.83 8.75329 66.83 8.29995C66.83 7.84662 66.83 7.37662 66.83 6.88995C66.8216 6.42651 66.716 5.96999 66.52 5.54995C66.3573 5.22909 66.0986 4.96693 65.78 4.79995C65.447 4.62622 65.0753 4.54018 64.7 4.54995C64.3312 4.54226 63.9664 4.62828 63.64 4.79995C63.3164 4.96357 63.0536 5.22637 62.89 5.54995C62.6857 5.96754 62.5764 6.42514 62.57 6.88995C62.57 7.37995 62.57 7.88995 62.57 8.29995C62.57 8.70995 62.57 9.22995 62.57 9.73995C62.5451 10.3937 62.7745 11.0317 63.21 11.5199C63.6133 11.8958 64.1489 12.0971 64.7 12.08Z" fill="url(#paint3_linear_407_3059)"/>
<path d="M72.56 14.41C72.5005 14.4123 72.4412 14.4018 72.3861 14.3794C72.3309 14.357 72.2811 14.3231 72.24 14.28C72.2008 14.2407 72.1699 14.1939 72.1492 14.1423C72.1286 14.0908 72.1187 14.0355 72.12 13.98V2.65002C72.1185 2.59297 72.1283 2.53618 72.1489 2.48295C72.1695 2.42973 72.2005 2.38114 72.24 2.34002C72.3268 2.25949 72.4417 2.21638 72.56 2.22002H77.3C78.5635 2.1315 79.8185 2.48502 80.85 3.22002C81.2795 3.57325 81.62 4.02242 81.8441 4.53135C82.0681 5.04028 82.1695 5.59473 82.14 6.15002C82.1632 6.89081 81.9572 7.62069 81.55 8.24002C81.1558 8.80667 80.6124 9.25315 79.98 9.53002L82.37 13.82C82.3824 13.8827 82.3824 13.9473 82.37 14.01C82.3676 14.1046 82.3281 14.1944 82.26 14.26C82.2276 14.2972 82.1877 14.3271 82.1429 14.3478C82.0981 14.3685 82.0494 14.3795 82 14.38H79.69C79.6011 14.3868 79.5116 14.3753 79.4273 14.346C79.343 14.3168 79.2657 14.2705 79.2 14.21C79.1069 14.12 79.0292 14.0153 78.97 13.9L76.97 10.07H75.19V14C75.1895 14.0562 75.1778 14.1117 75.1554 14.1632C75.1331 14.2147 75.1007 14.2612 75.06 14.3C75.0182 14.3422 74.9683 14.3754 74.9133 14.3977C74.8583 14.4201 74.7994 14.431 74.74 14.43L72.56 14.41ZM75.26 7.64002H77.26C77.7066 7.67287 78.1482 7.52925 78.49 7.24002C78.6283 7.09736 78.7359 6.928 78.8064 6.7423C78.8769 6.5566 78.9088 6.35846 78.9 6.16002C78.9194 5.75639 78.7793 5.36131 78.51 5.06002C78.3421 4.90732 78.1443 4.79115 77.9291 4.71885C77.714 4.64656 77.4861 4.61971 77.26 4.64002H75.26V7.64002Z" fill="url(#paint4_linear_407_3059)"/>
<path d="M89.11 14.59C88.1422 14.6141 87.1805 14.4299 86.29 14.0501C85.5316 13.7157 84.8908 13.1619 84.45 12.4601C83.9884 11.6742 83.7402 10.7814 83.73 9.87006C83.73 9.39006 83.73 8.87005 83.73 8.33005C83.73 7.79005 83.73 7.27005 83.73 6.77005C83.7427 5.86089 83.9944 4.97108 84.46 4.19006C84.9004 3.47927 85.5452 2.91809 86.31 2.58005C87.1937 2.20092 88.1487 2.01673 89.11 2.04005C89.8302 2.03477 90.5474 2.13242 91.24 2.33005C91.8564 2.50342 92.436 2.7881 92.95 3.17005C93.42 3.52343 93.8088 3.97356 94.09 4.49005C94.3659 5.03214 94.5098 5.63177 94.51 6.24005C94.5197 6.28748 94.5164 6.33664 94.5006 6.38238C94.4847 6.42812 94.4569 6.46876 94.42 6.50005C94.347 6.56938 94.2506 6.60866 94.15 6.61005H91.8C91.6749 6.62188 91.5499 6.58618 91.45 6.51005C91.349 6.41505 91.2763 6.29389 91.24 6.16006C91.1508 5.65048 90.8677 5.19528 90.45 4.89005C90.0393 4.65611 89.5725 4.53857 89.1 4.55006C88.5435 4.52109 87.9978 4.71136 87.58 5.08005C87.1578 5.57035 86.9395 6.20376 86.97 6.85005C86.97 7.85005 86.97 8.78005 86.97 9.78005C86.9374 10.4266 87.156 11.0608 87.58 11.5501C87.9978 11.9187 88.5435 12.109 89.1 12.0801C89.574 12.0933 90.0421 11.9719 90.45 11.7301C90.6577 11.5843 90.8346 11.3987 90.9702 11.1842C91.1058 10.9696 91.1975 10.7303 91.24 10.4801C91.2629 10.3405 91.3336 10.2132 91.44 10.1201C91.5468 10.0505 91.6726 10.0156 91.8 10.02H94.15C94.2506 10.0214 94.347 10.0607 94.42 10.13C94.4561 10.162 94.4833 10.2027 94.4991 10.2482C94.5149 10.2938 94.5186 10.3426 94.51 10.3901C94.5098 10.9983 94.3659 11.598 94.09 12.1401C93.8117 12.6586 93.4225 13.1093 92.95 13.4601C92.436 13.842 91.8564 14.1267 91.24 14.3001C90.5474 14.4977 89.8302 14.5953 89.11 14.59Z" fill="url(#paint5_linear_407_3059)"/>
<path d="M96.78 14.41C96.7219 14.4128 96.6639 14.4026 96.6103 14.3801C96.5566 14.3576 96.5087 14.3234 96.47 14.28C96.4274 14.2428 96.3936 14.1966 96.3711 14.1447C96.3486 14.0928 96.338 14.0366 96.34 13.98V2.65002C96.3379 2.59201 96.3484 2.53423 96.3708 2.4807C96.3933 2.42717 96.4271 2.37916 96.47 2.34002C96.5104 2.29948 96.5589 2.26786 96.6123 2.2472C96.6657 2.22653 96.7228 2.21727 96.78 2.22002H101.52C102.783 2.1315 104.038 2.48502 105.07 3.22002C105.499 3.57325 105.84 4.02242 106.064 4.53135C106.288 5.04028 106.389 5.59473 106.36 6.15002C106.383 6.89081 106.177 7.62069 105.77 8.24002C105.376 8.80667 104.832 9.25315 104.2 9.53002L106.59 13.82C106.602 13.8827 106.602 13.9473 106.59 14.01C106.588 14.1046 106.548 14.1944 106.48 14.26C106.449 14.296 106.41 14.3252 106.367 14.3458C106.324 14.3665 106.278 14.3781 106.23 14.38H104C103.911 14.3868 103.822 14.3753 103.737 14.346C103.653 14.3168 103.576 14.2705 103.51 14.21C103.417 14.12 103.339 14.0153 103.28 13.9L101.28 10.07H99.5V14C99.502 14.0565 99.4914 14.1128 99.4689 14.1647C99.4464 14.2166 99.4126 14.2628 99.37 14.3C99.3282 14.3422 99.2783 14.3754 99.2233 14.3977C99.1683 14.4201 99.1093 14.431 99.05 14.43L96.78 14.41ZM99.48 7.64002H101.48C101.927 7.67287 102.368 7.52925 102.71 7.24002C102.848 7.09736 102.956 6.928 103.026 6.7423C103.097 6.5566 103.129 6.35846 103.12 6.16002C103.139 5.75639 102.999 5.36131 102.73 5.06002C102.562 4.90732 102.364 4.79115 102.149 4.71885C101.934 4.64656 101.706 4.61971 101.48 4.64002H99.48V7.64002Z" fill="url(#paint6_linear_407_3059)"/>
<path d="M108.82 14.41C108.761 14.4123 108.701 14.4018 108.646 14.3794C108.591 14.357 108.541 14.3231 108.5 14.28C108.461 14.2407 108.43 14.1939 108.409 14.1423C108.389 14.0907 108.379 14.0355 108.38 13.98V2.65C108.378 2.59295 108.388 2.53615 108.409 2.48293C108.429 2.4297 108.46 2.38111 108.5 2.33999C108.587 2.25947 108.702 2.21636 108.82 2.22H117C117.057 2.21713 117.114 2.22629 117.168 2.24688C117.221 2.26748 117.27 2.29905 117.31 2.33956C117.351 2.38008 117.383 2.42864 117.403 2.48211C117.424 2.53558 117.433 2.59277 117.43 2.65V4.29C117.433 4.34718 117.424 4.40431 117.403 4.45771C117.382 4.5111 117.351 4.55956 117.31 4.59999C117.271 4.64286 117.223 4.67669 117.169 4.69914C117.116 4.72159 117.058 4.73212 117 4.73H111.4V7.08H116.57C116.63 7.07708 116.689 7.0872 116.744 7.10965C116.8 7.13211 116.849 7.16635 116.89 7.20999C116.971 7.29673 117.014 7.4117 117.01 7.52999V9.05C117.011 9.10545 117.001 9.1605 116.98 9.21199C116.959 9.26348 116.929 9.31039 116.89 9.34999C116.849 9.39364 116.8 9.42788 116.744 9.45034C116.689 9.47279 116.63 9.48291 116.57 9.48H111.4V11.9H117.1C117.217 11.9006 117.328 11.9473 117.41 12.03C117.451 12.0704 117.482 12.1189 117.503 12.1723C117.524 12.2257 117.533 12.2828 117.53 12.34V14C117.531 14.0554 117.521 14.1105 117.5 14.162C117.479 14.2135 117.449 14.2604 117.41 14.3C117.371 14.3429 117.323 14.3767 117.269 14.3991C117.216 14.4216 117.158 14.4321 117.1 14.43L108.82 14.41Z" fill="url(#paint7_linear_407_3059)"/>
<path d="M120 14.41C119.942 14.4129 119.884 14.4026 119.83 14.3802C119.777 14.3577 119.729 14.3235 119.69 14.28C119.651 14.2408 119.62 14.1939 119.599 14.1424C119.579 14.0908 119.569 14.0356 119.57 13.98V2.65004C119.568 2.59299 119.578 2.5362 119.599 2.48297C119.619 2.42975 119.65 2.38116 119.69 2.34004C119.73 2.2995 119.779 2.26788 119.832 2.24722C119.886 2.22655 119.943 2.21729 120 2.22004H124.53C125.528 2.19059 126.521 2.37825 127.44 2.77004C128.205 3.10218 128.851 3.66049 129.29 4.37004C129.745 5.16495 129.986 6.06417 129.99 6.98004C129.99 7.49004 129.99 7.98004 129.99 8.32004C129.99 8.66004 129.99 9.14004 129.99 9.64004C129.979 10.5759 129.742 11.4953 129.3 12.32C128.891 13.0312 128.258 13.5869 127.5 13.9C126.585 14.265 125.605 14.4386 124.62 14.41H120ZM122.7 11.91H124.53C124.959 11.9246 125.387 11.8426 125.78 11.67C126.107 11.5164 126.372 11.2553 126.53 10.93C126.716 10.5153 126.808 10.0645 126.8 9.61004C126.8 9.27004 126.8 8.97004 126.8 8.70004C126.8 8.43004 126.8 8.17004 126.8 7.90004C126.8 7.63004 126.8 7.33004 126.8 7.01004C126.818 6.69482 126.773 6.37916 126.666 6.08192C126.56 5.78468 126.394 5.51196 126.18 5.28004C125.696 4.8801 125.076 4.68301 124.45 4.73004H122.7V11.9V11.91Z" fill="url(#paint8_linear_407_3059)"/>
<path d="M132.43 14.41C132.372 14.4128 132.314 14.4026 132.26 14.3801C132.207 14.3576 132.159 14.3234 132.12 14.28C132.077 14.2428 132.044 14.1966 132.021 14.1447C131.999 14.0928 131.988 14.0365 131.99 13.98V2.64996C131.988 2.59195 131.998 2.53417 132.021 2.48064C132.043 2.4271 132.077 2.3791 132.12 2.33995C132.16 2.29941 132.209 2.2678 132.262 2.24713C132.316 2.22646 132.373 2.21721 132.43 2.21996H134.76C134.881 2.21684 134.999 2.25971 135.09 2.33995C135.173 2.42201 135.219 2.53349 135.22 2.64996V14C135.219 14.0561 135.208 14.1116 135.185 14.1631C135.163 14.2146 135.131 14.2612 135.09 14.3C135.047 14.3433 134.995 14.3773 134.939 14.3997C134.882 14.4221 134.821 14.4324 134.76 14.4299L132.43 14.41Z" fill="url(#paint9_linear_407_3059)"/>
<path d="M140.76 14.41C140.703 14.4114 140.646 14.4012 140.592 14.3802C140.539 14.3592 140.49 14.3277 140.449 14.2877C140.408 14.2476 140.376 14.1998 140.354 14.1469C140.331 14.0941 140.32 14.0373 140.32 13.98V4.98003H137.22C137.162 4.98285 137.104 4.97263 137.05 4.95014C136.997 4.92764 136.949 4.89344 136.91 4.85002C136.871 4.81042 136.841 4.76351 136.82 4.71202C136.799 4.66053 136.789 4.60548 136.79 4.55003V2.68003C136.788 2.62298 136.798 2.56618 136.819 2.51296C136.839 2.45973 136.87 2.41115 136.91 2.37003C136.95 2.32949 136.999 2.29787 137.052 2.2772C137.106 2.25653 137.163 2.24727 137.22 2.25003H146.6C146.657 2.24716 146.714 2.25632 146.768 2.27691C146.821 2.29751 146.87 2.32909 146.91 2.3696C146.951 2.41012 146.982 2.45867 147.003 2.51214C147.024 2.56561 147.033 2.6228 147.03 2.68003V4.55003C147.031 4.60548 147.021 4.66053 147 4.71202C146.979 4.76351 146.949 4.81042 146.91 4.85002C146.871 4.89289 146.823 4.92672 146.769 4.94917C146.716 4.97162 146.658 4.98215 146.6 4.98003H143.49V13.98C143.491 14.0356 143.481 14.0908 143.461 14.1423C143.44 14.1939 143.409 14.2408 143.37 14.28C143.331 14.3234 143.283 14.3576 143.23 14.3801C143.176 14.4026 143.118 14.4128 143.06 14.41H140.76Z" fill="url(#paint10_linear_407_3059)"/>
<path d="M43.3 30.6C43.2241 30.6071 43.1475 30.5982 43.0752 30.5741C43.0029 30.55 42.9364 30.5112 42.8799 30.46L42.6399 30.2L42.05 29.42C41.5489 29.5792 41.0256 29.6568 40.4999 29.65C39.5463 29.6715 38.5988 29.4908 37.7199 29.12C36.9577 28.7975 36.3122 28.2497 35.87 27.55C35.3949 26.7516 35.146 25.839 35.1499 24.91C35.1499 24.41 35.1499 23.91 35.1499 23.4C35.1499 22.89 35.1499 22.4 35.1499 21.89C35.152 20.9605 35.4041 20.0486 35.8799 19.25C36.3268 18.5409 36.9741 17.9806 37.7399 17.64C39.513 16.9201 41.4969 16.9201 43.2699 17.64C44.0369 17.983 44.6868 18.5426 45.1399 19.25C45.6208 20.0459 45.8701 20.9602 45.8599 21.89C45.8599 22.39 45.8599 22.89 45.8599 23.4C45.8599 23.91 45.8599 24.4 45.8599 24.91C45.8877 26.1426 45.4401 27.3385 44.6099 28.25L45.8799 30.06V30.13C45.8849 30.1665 45.8849 30.2035 45.8799 30.24C45.8872 30.285 45.8838 30.3311 45.8699 30.3746C45.856 30.418 45.832 30.4576 45.8 30.49C45.7664 30.5278 45.7246 30.5574 45.6778 30.5764C45.6309 30.5955 45.5804 30.6036 45.5299 30.6H43.3ZM40.4999 27.14C41.0573 27.1592 41.5999 26.958 42.0099 26.58C42.4392 26.0898 42.6583 25.4504 42.62 24.8C42.62 24.29 42.62 23.8 42.62 23.36C42.62 22.92 42.62 22.43 42.62 21.94C42.6265 21.4803 42.5272 21.0253 42.3299 20.61C42.1618 20.2906 41.9048 20.0266 41.5899 19.85C41.2513 19.6833 40.8773 19.6009 40.4999 19.61C40.1324 19.603 39.7686 19.6854 39.4399 19.85C39.12 20.0232 38.8588 20.2878 38.6899 20.61C38.4928 21.0257 38.3903 21.4799 38.3899 21.94C38.3899 22.43 38.3899 22.94 38.3899 23.36C38.3899 23.78 38.3899 24.29 38.3899 24.8C38.3581 25.453 38.5844 26.0924 39.0199 26.58C39.2156 26.7691 39.4477 26.9163 39.7022 27.0126C39.9567 27.1089 40.2281 27.1522 40.4999 27.14Z" fill="url(#paint11_linear_407_3059)"/>
<path d="M53.06 29.65C52.1136 29.6736 51.1729 29.4964 50.3 29.13C49.5417 28.8087 48.9046 28.2556 48.48 27.55C48.0196 26.7159 47.7949 25.7721 47.83 24.82V17.71C47.8272 17.6519 47.8374 17.5939 47.8599 17.5403C47.8824 17.4866 47.9166 17.4387 47.96 17.4C48.0004 17.3595 48.0489 17.3279 48.1023 17.3072C48.1557 17.2865 48.2128 17.2773 48.27 17.28H50.52C50.6383 17.2764 50.7532 17.3195 50.84 17.4C50.8834 17.4387 50.9176 17.4866 50.9401 17.5403C50.9626 17.5939 50.9728 17.6519 50.97 17.71V24.8C50.9228 25.4153 51.1164 26.0248 51.51 26.5C51.7106 26.6973 51.9505 26.85 52.2142 26.9483C52.4778 27.0465 52.7592 27.088 53.04 27.07C53.3207 27.088 53.6021 27.0465 53.8658 26.9483C54.1294 26.85 54.3694 26.6973 54.57 26.5C54.9671 26.0263 55.1644 25.4166 55.12 24.8V17.71C55.1172 17.6519 55.1274 17.5939 55.1499 17.5403C55.1724 17.4866 55.2066 17.4387 55.25 17.4C55.3311 17.3234 55.4384 17.2805 55.55 17.28H57.82C57.8754 17.2792 57.9305 17.2894 57.982 17.31C58.0335 17.3306 58.0804 17.3612 58.12 17.4C58.1634 17.4387 58.1976 17.4866 58.2201 17.5403C58.2426 17.5939 58.2528 17.6519 58.25 17.71V24.82C58.2881 25.7712 58.0669 26.7149 57.61 27.55C57.1869 28.2532 56.5538 28.8058 55.8 29.13C54.9338 29.4957 53.9998 29.6729 53.06 29.65Z" fill="url(#paint12_linear_407_3059)"/>
<path d="M61 29.47C60.9405 29.4729 60.881 29.4628 60.8257 29.4404C60.7704 29.4179 60.7207 29.3837 60.68 29.34C60.6034 29.2589 60.5606 29.1516 60.56 29.04V17.71C60.5573 17.6528 60.5666 17.5957 60.5872 17.5423C60.6079 17.4889 60.6395 17.4404 60.68 17.4C60.7227 17.3597 60.773 17.3283 60.8279 17.3077C60.8829 17.2871 60.9414 17.2777 61 17.28H63.33C63.3887 17.2777 63.4472 17.2871 63.5022 17.3077C63.5571 17.3283 63.6074 17.3597 63.65 17.4C63.6935 17.4387 63.7277 17.4866 63.7502 17.5403C63.7727 17.5939 63.7829 17.6519 63.78 17.71V29C63.7787 29.0578 63.7661 29.1148 63.7428 29.1677C63.7194 29.2205 63.6859 29.2683 63.6441 29.3082C63.6023 29.3482 63.5531 29.3795 63.4992 29.4004C63.4453 29.4213 63.3878 29.4313 63.33 29.43L61 29.47Z" fill="url(#paint13_linear_407_3059)"/>
<path d="M71.22 29.65C70.2488 29.6751 69.2836 29.4909 68.39 29.11C67.6326 28.7782 66.9943 28.2236 66.56 27.52C66.0949 26.7314 65.8433 25.8353 65.83 24.92C65.83 24.45 65.83 23.92 65.83 23.39C65.83 22.86 65.83 22.32 65.83 21.82C65.849 20.9118 66.1003 20.0235 66.56 19.24C67.0065 18.5369 67.6498 17.9805 68.41 17.64C69.2972 17.2609 70.2554 17.0768 71.22 17.1C71.9368 17.0954 72.6507 17.193 73.34 17.39C73.9564 17.5633 74.536 17.848 75.05 18.23C75.5274 18.5754 75.9177 19.0273 76.19 19.55C76.469 20.0913 76.6163 20.6909 76.6199 21.3C76.6274 21.3483 76.6221 21.3977 76.6046 21.4433C76.587 21.4889 76.5579 21.5291 76.52 21.56C76.4847 21.5956 76.4427 21.6238 76.3962 21.6427C76.3498 21.6616 76.3001 21.6709 76.25 21.67H73.8999C73.775 21.6799 73.6508 21.6444 73.55 21.57C73.4469 21.4726 73.374 21.3476 73.34 21.21C73.2484 20.704 72.9655 20.2528 72.55 19.95C72.1421 19.709 71.6733 19.5909 71.2 19.61C70.6438 19.5831 70.0989 19.7731 69.68 20.14C69.2622 20.6328 69.0445 21.2644 69.07 21.91C69.07 22.91 69.07 23.84 69.07 24.84C69.0445 25.4855 69.2622 26.1172 69.68 26.61C70.0989 26.9768 70.6438 27.1668 71.2 27.14C71.6771 27.1529 72.1483 27.0316 72.56 26.79C72.9764 26.4897 73.2569 26.0366 73.34 25.53C73.3691 25.3955 73.4389 25.2733 73.5399 25.18C73.6453 25.1071 73.7721 25.0719 73.8999 25.08H76.25C76.3001 25.0791 76.3498 25.0883 76.3962 25.1072C76.4427 25.1262 76.4847 25.1543 76.52 25.19C76.5579 25.2208 76.587 25.261 76.6046 25.3067C76.6221 25.3523 76.6274 25.4017 76.6199 25.45C76.6189 26.0492 76.4761 26.6397 76.2032 27.1733C75.9304 27.7068 75.5352 28.1683 75.05 28.52C74.536 28.9019 73.9564 29.1866 73.34 29.36C72.6507 29.5569 71.9368 29.6546 71.22 29.65Z" fill="url(#paint14_linear_407_3059)"/>
<path d="M78.8799 29.47C78.8219 29.4721 78.7641 29.4616 78.7106 29.4391C78.6571 29.4167 78.6091 29.3829 78.5699 29.34C78.4933 29.2588 78.4504 29.1516 78.4499 29.04V17.71C78.4472 17.6528 78.4564 17.5957 78.4771 17.5423C78.4978 17.4889 78.5294 17.4404 78.5699 17.4C78.6111 17.3604 78.6597 17.3294 78.7129 17.3088C78.7661 17.2882 78.8229 17.2784 78.8799 17.28H81.0799C81.1372 17.2771 81.1944 17.2863 81.2478 17.3069C81.3013 17.3275 81.3499 17.359 81.3904 17.3996C81.4309 17.4401 81.4625 17.4886 81.483 17.5421C81.5036 17.5956 81.5128 17.6528 81.5099 17.71V21.58L84.7399 17.58C84.7987 17.49 84.8774 17.4147 84.9699 17.36C85.1046 17.2768 85.2621 17.2383 85.4199 17.25H87.9299C87.9787 17.248 88.0273 17.2568 88.0723 17.2758C88.1173 17.2948 88.1574 17.3236 88.1899 17.36C88.2223 17.393 88.2478 17.4321 88.2649 17.475C88.2821 17.5179 88.2906 17.5638 88.2899 17.61C88.3108 17.6784 88.3108 17.7516 88.2899 17.82L84.1099 23.08L88.5999 28.87C88.627 28.8973 88.6473 28.9304 88.6595 28.9668C88.6716 29.0032 88.6752 29.042 88.6699 29.08C88.6699 29.1755 88.632 29.267 88.5645 29.3346C88.497 29.4021 88.4054 29.44 88.3099 29.44H85.7099C85.5381 29.455 85.3668 29.405 85.2299 29.3C85.1498 29.2375 85.0761 29.1671 85.0099 29.09L81.5599 24.79V29C81.5594 29.1116 81.5165 29.2188 81.4399 29.3C81.4012 29.3434 81.3533 29.3776 81.2997 29.4001C81.246 29.4226 81.188 29.4328 81.1299 29.43L78.8799 29.47Z" fill="url(#paint15_linear_407_3059)"/>
<path d="M90.44 29.47C90.3804 29.4729 90.3209 29.4628 90.2656 29.4404C90.2104 29.4179 90.1606 29.3837 90.12 29.34C90.0434 29.2589 90.0005 29.1516 90 29.04V17.71C89.9972 17.6528 90.0065 17.5957 90.0272 17.5423C90.0478 17.4889 90.0794 17.4404 90.12 17.4C90.1626 17.3597 90.2129 17.3283 90.2679 17.3077C90.3228 17.2871 90.3813 17.2777 90.44 17.28H92.74C92.797 17.2784 92.8538 17.2883 92.907 17.3089C92.9603 17.3295 93.0089 17.3604 93.05 17.4C93.0905 17.4404 93.1221 17.4889 93.1428 17.5423C93.1635 17.5957 93.1727 17.6528 93.17 17.71V26.84H98.45C98.5078 26.8392 98.5652 26.8503 98.6186 26.8727C98.6719 26.895 98.72 26.9282 98.76 26.97C98.8021 27.0118 98.8354 27.0617 98.8577 27.1167C98.88 27.1717 98.891 27.2307 98.89 27.29V29C98.8901 29.0563 98.8786 29.1119 98.8562 29.1635C98.8338 29.2151 98.8011 29.2616 98.76 29.3C98.7213 29.3434 98.6733 29.3776 98.6197 29.4001C98.5661 29.4226 98.5081 29.4328 98.45 29.43L90.44 29.47Z" fill="url(#paint16_linear_407_3059)"/>
<path d="M105.25 29.65C104.293 29.6704 103.343 29.4899 102.46 29.12C101.696 28.8008 101.049 28.2522 100.61 27.55C100.145 26.7468 99.8937 25.8379 99.88 24.91C99.88 24.41 99.88 23.91 99.88 23.4C99.88 22.89 99.88 22.4 99.88 21.89C99.895 20.9609 100.15 20.0515 100.62 19.25C101.067 18.5409 101.714 17.9805 102.48 17.64C104.256 16.9195 106.244 16.9195 108.02 17.64C108.786 17.9805 109.433 18.5409 109.88 19.25C110.356 20.0485 110.608 20.9604 110.61 21.89C110.61 22.39 110.61 22.89 110.61 23.4C110.61 23.91 110.61 24.4 110.61 24.91C110.614 25.839 110.365 26.7516 109.89 27.55C109.444 28.2499 108.795 28.7975 108.03 29.12C107.151 29.4899 106.204 29.6705 105.25 29.65ZM105.25 27.14C105.525 27.1503 105.799 27.1062 106.056 27.0101C106.314 26.914 106.549 26.7678 106.75 26.58C106.966 26.3392 107.132 26.0578 107.239 25.7523C107.345 25.4467 107.39 25.123 107.37 24.8C107.37 24.29 107.37 23.8 107.37 23.36C107.37 22.92 107.37 22.43 107.37 21.94C107.37 21.4799 107.267 21.0257 107.07 20.61C106.905 20.2884 106.647 20.0237 106.33 19.85C105.994 19.6863 105.624 19.604 105.25 19.61C104.879 19.6041 104.513 19.6864 104.18 19.85C103.862 20.026 103.602 20.2898 103.43 20.61C103.229 21.0247 103.123 21.4791 103.12 21.94C103.12 22.43 103.12 22.94 103.12 23.36C103.12 23.78 103.12 24.29 103.12 24.8C103.095 25.4537 103.325 26.0917 103.76 26.58C103.959 26.767 104.193 26.9128 104.449 27.0089C104.705 27.105 104.977 27.1496 105.25 27.14Z" fill="url(#paint17_linear_407_3059)"/>
<path d="M111.71 29.47C111.615 29.4676 111.526 29.4281 111.46 29.36C111.425 29.3282 111.398 29.2896 111.379 29.2466C111.36 29.2035 111.35 29.157 111.35 29.11C111.345 29.0568 111.345 29.0032 111.35 28.95L115.45 17.76C115.483 17.6274 115.556 17.5085 115.66 17.42C115.793 17.3146 115.96 17.2613 116.13 17.27H118.71C118.877 17.261 119.041 17.3145 119.17 17.42C119.274 17.5085 119.347 17.6274 119.38 17.76L123.47 29C123.48 29.0529 123.48 29.1072 123.47 29.16C123.468 29.2077 123.456 29.2544 123.436 29.2974C123.415 29.3404 123.386 29.3787 123.35 29.41C123.315 29.4457 123.273 29.4738 123.226 29.4927C123.18 29.5117 123.13 29.5209 123.08 29.52H121C120.93 29.5254 120.859 29.5167 120.792 29.4944C120.725 29.4721 120.663 29.4366 120.61 29.39C120.539 29.3251 120.481 29.247 120.44 29.16L119.76 27.38H115.11L114.45 29.16C114.413 29.2468 114.359 29.3251 114.29 29.39C114.233 29.4399 114.166 29.4773 114.094 29.4997C114.021 29.5221 113.945 29.529 113.87 29.52L111.71 29.47ZM115.81 24.82H119.05L117.43 20.22L115.81 24.82Z" fill="url(#paint18_linear_407_3059)"/>
<path d="M125.32 29.47C125.262 29.4728 125.204 29.4626 125.15 29.4401C125.097 29.4176 125.049 29.3834 125.01 29.34C124.969 29.3015 124.936 29.2551 124.914 29.2035C124.891 29.1519 124.88 29.0962 124.88 29.04V17.71C124.877 17.6519 124.887 17.5939 124.91 17.5402C124.932 17.4866 124.967 17.4387 125.01 17.4C125.05 17.3594 125.099 17.3278 125.152 17.3071C125.206 17.2865 125.263 17.2772 125.32 17.28H127.17C127.245 17.2722 127.321 17.2797 127.393 17.302C127.465 17.3244 127.532 17.3611 127.59 17.41C127.659 17.4646 127.717 17.5326 127.76 17.61L132 24.3V17.71C131.997 17.6528 132.006 17.5956 132.027 17.5423C132.048 17.4889 132.079 17.4404 132.12 17.4C132.163 17.3596 132.213 17.3282 132.268 17.3076C132.323 17.287 132.381 17.2776 132.44 17.28H134.53C134.587 17.2784 134.644 17.2882 134.697 17.3088C134.75 17.3294 134.799 17.3604 134.84 17.4C134.881 17.4404 134.912 17.4889 134.933 17.5423C134.953 17.5956 134.963 17.6528 134.96 17.71V29C134.964 29.1183 134.92 29.2332 134.84 29.32C134.801 29.3628 134.753 29.3967 134.699 29.4191C134.646 29.4416 134.588 29.4521 134.53 29.45H132.66C132.586 29.4568 132.511 29.4479 132.44 29.4238C132.369 29.3996 132.305 29.3609 132.25 29.31C132.188 29.2542 132.134 29.1903 132.09 29.12L127.83 22.67V29C127.829 29.1116 127.787 29.2188 127.71 29.3C127.671 29.3434 127.623 29.3776 127.57 29.4001C127.516 29.4226 127.458 29.4328 127.4 29.43L125.32 29.47Z" fill="url(#paint19_linear_407_3059)"/>
<path d="M142 29.65C141.013 29.6803 140.03 29.5102 139.11 29.15C138.421 28.8855 137.819 28.4355 137.37 27.85C136.988 27.3591 136.768 26.7616 136.74 26.14C136.744 26.0459 136.784 25.9568 136.85 25.89C136.923 25.8207 137.019 25.7814 137.12 25.78H139.32C139.45 25.7724 139.578 25.8037 139.69 25.87C139.784 25.9268 139.865 26.0016 139.93 26.09C140.032 26.2799 140.163 26.4521 140.32 26.6C140.514 26.7752 140.742 26.908 140.99 26.99C141.312 27.0962 141.651 27.147 141.99 27.14C142.516 27.1715 143.041 27.061 143.51 26.82C143.654 26.7351 143.774 26.6155 143.859 26.4723C143.945 26.3291 143.993 26.1667 144 26C144.006 25.879 143.983 25.7584 143.935 25.6474C143.886 25.5364 143.813 25.4381 143.72 25.36C143.454 25.1506 143.147 24.9975 142.82 24.91C142.281 24.746 141.733 24.6092 141.18 24.5C140.401 24.3505 139.642 24.1088 138.92 23.78C138.35 23.5245 137.86 23.1203 137.5 22.61C137.156 22.0746 136.985 21.4461 137.01 20.81C137.001 20.1288 137.212 19.4627 137.61 18.91C138.038 18.3263 138.62 17.8728 139.29 17.6C140.79 17.0335 142.435 16.9772 143.97 17.44C144.531 17.6213 145.054 17.9062 145.51 18.28C145.912 18.5814 146.252 18.9584 146.51 19.39C146.716 19.7361 146.832 20.1278 146.85 20.53C146.851 20.6215 146.819 20.7102 146.76 20.78C146.726 20.8178 146.685 20.8474 146.638 20.8665C146.591 20.8855 146.54 20.8936 146.49 20.89H144.19C144.076 20.8952 143.962 20.8711 143.86 20.82C143.757 20.7727 143.67 20.6962 143.61 20.6C143.52 20.314 143.323 20.0739 143.06 19.93C142.713 19.7238 142.313 19.623 141.91 19.64C141.493 19.6168 141.077 19.7103 140.71 19.91C140.573 19.9986 140.461 20.1221 140.387 20.268C140.314 20.4139 140.28 20.5768 140.29 20.74C140.286 20.9653 140.368 21.1836 140.52 21.35C140.745 21.5587 141.016 21.7127 141.31 21.8C141.801 21.9639 142.302 22.0975 142.81 22.2C143.69 22.3439 144.549 22.5924 145.37 22.94C145.949 23.1803 146.448 23.5788 146.81 24.09C147.146 24.6782 147.304 25.3513 147.265 26.0276C147.226 26.7039 146.991 27.3544 146.59 27.9C146.104 28.4965 145.464 28.9493 144.74 29.21C143.868 29.5364 142.941 29.6959 142.01 29.68L142 29.65Z" fill="url(#paint20_linear_407_3059)"/>
<defs>
<linearGradient id="paint0_linear_407_3059" x1="-12.1186" y1="1.9785" x2="14.5276" y2="1.9785" gradientUnits="userSpaceOnUse">
<stop stop-color="#193044"/>
<stop offset="1" stop-color="#594E9E"/>
</linearGradient>
<linearGradient id="paint1_linear_407_3059" x1="34.0117" y1="7.21597" x2="44.1217" y2="7.21597" gradientUnits="userSpaceOnUse">
<stop stop-color="#193044"/>
<stop offset="1" stop-color="#594E9E"/>
</linearGradient>
<linearGradient id="paint2_linear_407_3059" x1="48.4955" y1="5.29503" x2="59.2755" y2="5.29503" gradientUnits="userSpaceOnUse">
<stop stop-color="#193044"/>
<stop offset="1" stop-color="#594E9E"/>
</linearGradient>
<linearGradient id="paint3_linear_407_3059" x1="60.9054" y1="5.29495" x2="71.6854" y2="5.29495" gradientUnits="userSpaceOnUse">
<stop stop-color="#193044"/>
<stop offset="1" stop-color="#594E9E"/>
</linearGradient>
<linearGradient id="paint4_linear_407_3059" x1="71.186" y1="6.24602" x2="81.486" y2="6.24602" gradientUnits="userSpaceOnUse">
<stop stop-color="#193044"/>
<stop offset="1" stop-color="#594E9E"/>
</linearGradient>
<linearGradient id="paint5_linear_407_3059" x1="81.8885" y1="11.1841" x2="92.6985" y2="11.1841" gradientUnits="userSpaceOnUse">
<stop stop-color="#193044"/>
<stop offset="1" stop-color="#594E9E"/>
</linearGradient>
<linearGradient id="paint6_linear_407_3059" x1="95.416" y1="6.24602" x2="105.716" y2="6.24602" gradientUnits="userSpaceOnUse">
<stop stop-color="#193044"/>
<stop offset="1" stop-color="#594E9E"/>
</linearGradient>
<linearGradient id="paint7_linear_407_3059" x1="107.497" y1="5.87799" x2="116.647" y2="5.87799" gradientUnits="userSpaceOnUse">
<stop stop-color="#193044"/>
<stop offset="1" stop-color="#594E9E"/>
</linearGradient>
<linearGradient id="paint8_linear_407_3059" x1="118.474" y1="5.87804" x2="128.914" y2="5.87804" gradientUnits="userSpaceOnUse">
<stop stop-color="#193044"/>
<stop offset="1" stop-color="#594E9E"/>
</linearGradient>
<linearGradient id="paint9_linear_407_3059" x1="132.954" y1="5.87795" x2="136.174" y2="5.87795" gradientUnits="userSpaceOnUse">
<stop stop-color="#193044"/>
<stop offset="1" stop-color="#594E9E"/>
</linearGradient>
<linearGradient id="paint10_linear_407_3059" x1="135.17" y1="5.87803" x2="145.42" y2="5.87803" gradientUnits="userSpaceOnUse">
<stop stop-color="#193044"/>
<stop offset="1" stop-color="#594E9E"/>
</linearGradient>
<linearGradient id="paint11_linear_407_3059" x1="36.7999" y1="26.195" x2="47.5999" y2="26.195" gradientUnits="userSpaceOnUse">
<stop stop-color="#193044"/>
<stop offset="1" stop-color="#594E9E"/>
</linearGradient>
<linearGradient id="paint12_linear_407_3059" x1="47.465" y1="23.6272" x2="57.885" y2="23.6272" gradientUnits="userSpaceOnUse">
<stop stop-color="#193044"/>
<stop offset="1" stop-color="#594E9E"/>
</linearGradient>
<linearGradient id="paint13_linear_407_3059" x1="61.5336" y1="20.938" x2="64.7536" y2="20.938" gradientUnits="userSpaceOnUse">
<stop stop-color="#193044"/>
<stop offset="1" stop-color="#594E9E"/>
</linearGradient>
<linearGradient id="paint14_linear_407_3059" x1="64.0085" y1="26.244" x2="74.8185" y2="26.244" gradientUnits="userSpaceOnUse">
<stop stop-color="#193044"/>
<stop offset="1" stop-color="#594E9E"/>
</linearGradient>
<linearGradient id="paint15_linear_407_3059" x1="76.6459" y1="21.296" x2="86.8259" y2="21.296" gradientUnits="userSpaceOnUse">
<stop stop-color="#193044"/>
<stop offset="1" stop-color="#594E9E"/>
</linearGradient>
<linearGradient id="paint16_linear_407_3059" x1="88.6767" y1="20.938" x2="97.5667" y2="20.938" gradientUnits="userSpaceOnUse">
<stop stop-color="#193044"/>
<stop offset="1" stop-color="#594E9E"/>
</linearGradient>
<linearGradient id="paint17_linear_407_3059" x1="101.445" y1="20.355" x2="112.225" y2="20.355" gradientUnits="userSpaceOnUse">
<stop stop-color="#193044"/>
<stop offset="1" stop-color="#594E9E"/>
</linearGradient>
<linearGradient id="paint18_linear_407_3059" x1="111.611" y1="21.776" x2="123.771" y2="21.776" gradientUnits="userSpaceOnUse">
<stop stop-color="#193044"/>
<stop offset="1" stop-color="#594E9E"/>
</linearGradient>
<linearGradient id="paint19_linear_407_3059" x1="123.889" y1="20.938" x2="133.979" y2="20.938" gradientUnits="userSpaceOnUse">
<stop stop-color="#193044"/>
<stop offset="1" stop-color="#594E9E"/>
</linearGradient>
<linearGradient id="paint20_linear_407_3059" x1="138.217" y1="20.825" x2="148.737" y2="20.825" gradientUnits="userSpaceOnUse">
<stop stop-color="#193044"/>
<stop offset="1" stop-color="#594E9E"/>
</linearGradient>
</defs>
</svg>
